<svg width="750" height="157" viewBox="0 0 750 157" fill="none" xmlns="http://www.w3.org/2000/svg">
<path fill-rule="evenodd" clip-rule="evenodd" d="M496.818 29C507.864 29 516.818 20.0457 516.818 9C516.818 -2.0457 507.864 -11 496.818 -11C485.772 -11 476.818 -2.0457 476.818 9C476.818 20.0457 485.772 29 496.818 29Z" fill="#FF7E00"/>
<path fill-rule="evenodd" clip-rule="evenodd" d="M637.818 66C643.341 66 647.818 61.5228 647.818 56C647.818 50.4772 643.341 46 637.818 46C632.295 46 627.818 50.4772 627.818 56C627.818 61.5228 632.295 66 637.818 66Z" fill="#F7C348"/>
<path fill-rule="evenodd" clip-rule="evenodd" d="M362 81C373.046 81 382 72.0457 382 61C382 49.9543 373.046 41 362 41C350.954 41 342 49.9543 342 61C342 72.0457 350.954 81 362 81Z" fill="#FEFF65"/>
<path fill-rule="evenodd" clip-rule="evenodd" d="M68.818 122C74.3408 122 78.818 117.523 78.818 112C78.818 106.477 74.3408 102 68.818 102C63.2951 102 58.818 106.477 58.818 112C58.818 117.523 63.2951 122 68.818 122Z" fill="#FFBDCA"/>
<path fill-rule="evenodd" clip-rule="evenodd" d="M226.818 52C230.132 52 232.818 49.3137 232.818 46C232.818 42.6863 230.132 40 226.818 40C223.504 40 220.818 42.6863 220.818 46C220.818 49.3137 223.504 52 226.818 52Z" fill="#FFE949"/>
<path fill-rule="evenodd" clip-rule="evenodd" d="M390.553 34.7956C393.754 33.9379 395.653 30.6479 394.796 27.4471C393.938 24.2463 390.648 22.3468 387.447 23.2045C384.246 24.0621 382.347 27.3521 383.204 30.5529C384.062 33.7537 387.352 35.6532 390.553 34.7956Z" fill="#49FFF4"/>
<path fill-rule="evenodd" clip-rule="evenodd" d="M527.818 59C531.132 59 533.818 56.3137 533.818 53C533.818 49.6863 531.132 47 527.818 47C524.504 47 521.818 49.6863 521.818 53C521.818 56.3137 524.504 59 527.818 59Z" fill="#FFE949"/>
<rect x="54.7175" y="31.9584" width="20" height="48" transform="rotate(45 54.7175 31.9584)" fill="#FCADFF"/>
<rect x="199.918" y="78.1716" width="10" height="18" transform="rotate(-45 199.918 78.1716)" fill="#9BFFDA"/>
<path fill-rule="evenodd" clip-rule="evenodd" d="M154.818 40C182.432 40 204.818 17.6142 204.818 -10C204.818 -37.6142 182.432 -60 154.818 -60C127.204 -60 104.818 -37.6142 104.818 -10C104.818 17.6142 127.204 40 154.818 40Z" fill="#37DAFF"/>
<rect x="599.622" y="-39.6274" width="80" height="144" transform="rotate(-45 599.622 -39.6274)" fill="#FFE949"/>
<rect x="465.896" y="91.2203" width="8" height="15" transform="rotate(15 465.896 91.2203)" fill="#FFE949"/>
<rect x="317.077" y="13.2203" width="8" height="15" transform="rotate(15 317.077 13.2203)" fill="#E0B6FF"/>
<rect x="126.104" y="74.0048" width="8" height="15" transform="rotate(30 126.104 74.0048)" fill="#FFE949"/>
<rect width="8" height="15" transform="matrix(-0.707107 0.707107 0.707107 0.707107 594.343 113.368)" fill="#FF3C00"/>
<rect width="12" height="20" transform="matrix(-0.707107 0.707107 0.707107 0.707107 9.17163 9.53986)" fill="#FFA746"/>
<rect width="16" height="30" transform="matrix(-0.5 0.866025 0.866025 0.5 581.828 3.57181)" fill="#49FFF4"/>
<rect x="687.148" y="137.768" width="10" height="20" transform="rotate(60 687.148 137.768)" fill="#49FFF4"/>
</svg>
